<?xml version="1.0" encoding="UTF-8" standalone="no"?>
<svg
   xmlns:dc="http://purl.org/dc/elements/1.1/"
   xmlns:cc="http://creativecommons.org/ns#"
   xmlns:rdf="http://www.w3.org/1999/02/22-rdf-syntax-ns#"
   xmlns:svg="http://www.w3.org/2000/svg"
   xmlns="http://www.w3.org/2000/svg"
   id="svg2"
   viewBox="0 0 4.2333331 4.2333334"
   version="1.1"
   width="16"
   height="16">
  <metadata
     id="metadata22">
    <rdf:RDF>
      <cc:Work
         rdf:about="">
        <dc:format>image/svg+xml</dc:format>
        <dc:type
           rdf:resource="http://purl.org/dc/dcmitype/StillImage" />
        <dc:title></dc:title>
      </cc:Work>
    </rdf:RDF>
  </metadata>
  <defs
     id="defs20" />
  <g
     id="g4"
     transform="matrix(0.9374853,0,0,0.93748536,0.13229142,-274.32902)">
    <circle
       style="fill:#2268ab;stroke-width:0.25066"
       id="circle6"
       r="2.1166999"
       cy="294.88"
       cx="2.1166999" />
    <g
       style="fill:none;stroke-linecap:round;stroke-linejoin:round"
       id="g8">
      <path
         style="stroke:#ffffff;stroke-width:0.47037536"
         id="path10"
         d="M 3.0714,295.43 A 1.1024,1.1024 0 0 1 2.11667,295.98121 1.1024,1.1024 0 0 1 1.16194,295.43" />
      <path
         style="stroke:#ffffff;stroke-width:0.47037536"
         id="path12"
         d="m -1.1619,-294.33 a 1.1024,1.1024 0 0 1 -0.95473,0.55122 1.1024,1.1024 0 0 1 -0.95473,-0.55122"
         transform="scale(-1,-1)" />
      <path
         style="stroke:#faffff;stroke-width:0.56444615"
         id="path14"
         d="m 1.4349,295.15 -0.52538,-4e-5 1.138e-4,0.52563" />
      <path
         style="stroke:#faffff;stroke-width:0.56444615"
         id="path16"
         d="m 2.815,294.62 0.52538,4e-5 -1.138e-4,-0.52563" />
    </g>
  </g>
</svg>
