<?xml version="1.0" encoding="UTF-8" standalone="no"?>
<svg
   xmlns:dc="http://purl.org/dc/elements/1.1/"
   xmlns:cc="http://creativecommons.org/ns#"
   xmlns:rdf="http://www.w3.org/1999/02/22-rdf-syntax-ns#"
   xmlns:svg="http://www.w3.org/2000/svg"
   xmlns="http://www.w3.org/2000/svg"
   id="svg2"
   viewBox="0 0 4.2333331 4.2333334"
   version="1.1"
   width="16"
   height="16">
  <metadata
     id="metadata14">
    <rdf:RDF>
      <cc:Work
         rdf:about="">
        <dc:format>image/svg+xml</dc:format>
        <dc:type
           rdf:resource="http://purl.org/dc/dcmitype/StillImage" />
        <dc:title></dc:title>
      </cc:Work>
    </rdf:RDF>
  </metadata>
  <defs
     id="defs12" />
  <g
     id="g4"
     transform="matrix(0.9374853,0,0,0.93748536,0.13229142,-274.32902)">
    <circle
       style="fill:#868686;stroke-width:0.25066"
       id="circle6"
       r="2.1166999"
       cx="2.1166999"
       cy="294.88" />
    <path
       style="fill:#fcffff;stroke-width:0.26458001"
       id="path8"
       d="m 2.1198,293.98 c 0.41116,0 0.75671,0.28045 0.86519,0.65775 0.093927,-0.20003 0.29448,-0.34131 0.52837,-0.34131 0.3238,10e-4 0.58593,0.26358 0.58738,0.58737 -0.00146,0.3238 -0.26358,0.58593 -0.58738,0.58738 -0.23416,0 -0.43471,-0.14208 -0.52917,-0.34184 -0.10795,0.37756 -0.4535,0.65775 -0.86466,0.65775 -0.41354,0 -0.76121,-0.2831 -0.8673,-0.6641 -0.093927,0.21047 -0.30213,0.34669 -0.53261,0.34845 -0.3238,-10e-4 -0.58593,-0.26358 -0.58738,-0.58737 0.00116,-0.32401 0.26337,-0.58646 0.58738,-0.58791 0.23707,0 0.4408,0.14473 0.5334,0.34846 0.10583,-0.381 0.45323,-0.66411 0.86678,-0.66411 z m 0,0.34528 c -0.31062,0 -0.55827,0.24791 -0.5588,0.55827 -0.00177,0.30935 0.24945,0.56057 0.5588,0.5588 0.30893,0.001 0.55975,-0.24934 0.55827,-0.55827 0,-0.31089 -0.24791,-0.5588 -0.55827,-0.5588 z m -1.3996,0.31564 c -0.13484,-10e-4 -0.24461,0.10805 -0.24342,0.24289 0,0.136 0.10716,0.24236 0.24342,0.24236 0.13436,10e-4 0.24358,-0.108 0.24209,-0.24236 0.00164,-0.13461 -0.10775,-0.24423 -0.24236,-0.24289 z m 2.7932,0 c -0.13484,-10e-4 -0.24461,0.10805 -0.24342,0.24289 0,0.136 0.10716,0.24236 0.24342,0.24236 0.13451,10e-4 0.24397,-0.10785 0.24262,-0.24236 0.00148,-0.13475 -0.10813,-0.24438 -0.24289,-0.24289 z" />
  </g>
</svg>
